<svg xmlns="http://www.w3.org/2000/svg" width="400" height="560" viewBox="0 0 400 560" opacity="0.12">
  <!-- Newspaper page outline -->
  <rect x="10" y="10" width="380" height="540" fill="#EDE7DA" stroke="#C4B9A8" stroke-width="1"/>
  <!-- Masthead -->
  <rect x="30" y="25" width="340" height="4" fill="#8B6914" rx="1"/>
  <rect x="80" y="38" width="240" height="14" fill="#3D3529" rx="1"/>
  <rect x="30" y="58" width="340" height="2" fill="#8B6914" rx="1"/>
  <!-- Date line -->
  <rect x="30" y="66" width="120" height="6" fill="#5E5345" rx="1"/>
  <rect x="250" y="66" width="120" height="6" fill="#5E5345" rx="1"/>
  <rect x="30" y="78" width="340" height="1" fill="#C4B9A8"/>
  <!-- Column 1 (left) -->
  <rect x="30" y="88" width="160" height="10" fill="#3D3529" rx="1"/>
  <rect x="30" y="104" width="160" height="4" fill="#8A7E70" rx="1"/>
  <rect x="30" y="114" width="155" height="4" fill="#8A7E70" rx="1"/>
  <rect x="30" y="124" width="160" height="4" fill="#8A7E70" rx="1"/>
  <rect x="30" y="134" width="148" height="4" fill="#8A7E70" rx="1"/>
  <rect x="30" y="144" width="160" height="4" fill="#8A7E70" rx="1"/>
  <rect x="30" y="154" width="152" height="4" fill="#8A7E70" rx="1"/>
  <rect x="30" y="164" width="160" height="4" fill="#8A7E70" rx="1"/>
  <rect x="30" y="174" width="140" height="4" fill="#8A7E70" rx="1"/>
  <rect x="30" y="184" width="160" height="4" fill="#8A7E70" rx="1"/>
  <rect x="30" y="194" width="156" height="4" fill="#8A7E70" rx="1"/>
  <rect x="30" y="204" width="160" height="4" fill="#8A7E70" rx="1"/>
  <rect x="30" y="214" width="145" height="4" fill="#8A7E70" rx="1"/>
  <!-- Column divider -->
  <line x1="200" y1="85" x2="200" y2="520" stroke="#C4B9A8" stroke-width="0.5"/>
  <!-- Column 2 (right) -->
  <rect x="210" y="88" width="160" height="10" fill="#3D3529" rx="1"/>
  <rect x="210" y="104" width="160" height="4" fill="#8A7E70" rx="1"/>
  <rect x="210" y="114" width="155" height="4" fill="#8A7E70" rx="1"/>
  <rect x="210" y="124" width="160" height="4" fill="#8A7E70" rx="1"/>
  <rect x="210" y="134" width="150" height="4" fill="#8A7E70" rx="1"/>
  <rect x="210" y="144" width="160" height="4" fill="#8A7E70" rx="1"/>
  <rect x="210" y="154" width="142" height="4" fill="#8A7E70" rx="1"/>
  <rect x="210" y="164" width="160" height="4" fill="#8A7E70" rx="1"/>
  <rect x="210" y="174" width="155" height="4" fill="#8A7E70" rx="1"/>
  <!-- Image placeholder right column -->
  <rect x="210" y="190" width="160" height="100" fill="#D5CFC2" stroke="#C4B9A8" stroke-width="0.5"/>
  <line x1="210" y1="190" x2="370" y2="290" stroke="#C4B9A8" stroke-width="0.3"/>
  <line x1="370" y1="190" x2="210" y2="290" stroke="#C4B9A8" stroke-width="0.3"/>
  <!-- More text right column -->
  <rect x="210" y="298" width="160" height="4" fill="#8A7E70" rx="1"/>
  <rect x="210" y="308" width="155" height="4" fill="#8A7E70" rx="1"/>
  <rect x="210" y="318" width="160" height="4" fill="#8A7E70" rx="1"/>
  <rect x="210" y="328" width="148" height="4" fill="#8A7E70" rx="1"/>
  <rect x="210" y="338" width="160" height="4" fill="#8A7E70" rx="1"/>
  <!-- More text left column -->
  <rect x="30" y="232" width="160" height="8" fill="#3D3529" rx="1"/>
  <rect x="30" y="248" width="160" height="4" fill="#8A7E70" rx="1"/>
  <rect x="30" y="258" width="155" height="4" fill="#8A7E70" rx="1"/>
  <rect x="30" y="268" width="160" height="4" fill="#8A7E70" rx="1"/>
  <rect x="30" y="278" width="148" height="4" fill="#8A7E70" rx="1"/>
  <rect x="30" y="288" width="160" height="4" fill="#8A7E70" rx="1"/>
  <rect x="30" y="298" width="150" height="4" fill="#8A7E70" rx="1"/>
  <rect x="30" y="308" width="160" height="4" fill="#8A7E70" rx="1"/>
  <rect x="30" y="318" width="145" height="4" fill="#8A7E70" rx="1"/>
  <rect x="30" y="328" width="160" height="4" fill="#8A7E70" rx="1"/>
  <rect x="30" y="338" width="152" height="4" fill="#8A7E70" rx="1"/>
  <!-- Horizontal rule -->
  <rect x="30" y="352" width="340" height="2" fill="#C4B9A8"/>
  <!-- Bottom section: 3 columns -->
  <rect x="30" y="362" width="100" height="7" fill="#3D3529" rx="1"/>
  <rect x="30" y="375" width="100" height="3.5" fill="#8A7E70" rx="1"/>
  <rect x="30" y="383" width="95" height="3.5" fill="#8A7E70" rx="1"/>
  <rect x="30" y="391" width="100" height="3.5" fill="#8A7E70" rx="1"/>
  <rect x="30" y="399" width="90" height="3.5" fill="#8A7E70" rx="1"/>
  <rect x="30" y="407" width="100" height="3.5" fill="#8A7E70" rx="1"/>
  <rect x="30" y="415" width="96" height="3.5" fill="#8A7E70" rx="1"/>
  <line x1="140" y1="360" x2="140" y2="480" stroke="#C4B9A8" stroke-width="0.5"/>
  <rect x="150" y="362" width="100" height="7" fill="#3D3529" rx="1"/>
  <rect x="150" y="375" width="100" height="3.5" fill="#8A7E70" rx="1"/>
  <rect x="150" y="383" width="95" height="3.5" fill="#8A7E70" rx="1"/>
  <rect x="150" y="391" width="100" height="3.5" fill="#8A7E70" rx="1"/>
  <rect x="150" y="399" width="92" height="3.5" fill="#8A7E70" rx="1"/>
  <rect x="150" y="407" width="100" height="3.5" fill="#8A7E70" rx="1"/>
  <line x1="260" y1="360" x2="260" y2="480" stroke="#C4B9A8" stroke-width="0.5"/>
  <rect x="270" y="362" width="100" height="7" fill="#3D3529" rx="1"/>
  <rect x="270" y="375" width="100" height="3.5" fill="#8A7E70" rx="1"/>
  <rect x="270" y="383" width="95" height="3.5" fill="#8A7E70" rx="1"/>
  <rect x="270" y="391" width="100" height="3.5" fill="#8A7E70" rx="1"/>
  <rect x="270" y="399" width="88" height="3.5" fill="#8A7E70" rx="1"/>
  <rect x="270" y="407" width="100" height="3.5" fill="#8A7E70" rx="1"/>
  <!-- Fold line (crease) -->
  <line x1="10" y1="280" x2="390" y2="280" stroke="rgba(160,148,128,0.15)" stroke-width="2"/>
</svg>
